<svg width="800" height="400" xmlns="http://www.w3.org/2000/svg">
  <text x="400" y="30" text-anchor="middle" font-size="16" font-weight="bold">CI/CD 파이프라인</text>
  
  <!-- CI Section -->
  <rect x="50" y="60" width="300" height="120" fill="#e8f5e8" stroke="#4caf50" stroke-width="2" rx="10"/>
  <text x="200" y="85" text-anchor="middle" font-size="14" font-weight="bold">CI (Continuous Integration)</text>
  
  <rect x="70" y="100" width="60" height="30" fill="#c8e6c9" stroke="#388e3c" stroke-width="1" rx="3"/>
  <text x="100" y="120" text-anchor="middle" font-size="9">코드 커밋</text>
  
  <rect x="140" y="100" width="60" height="30" fill="#c8e6c9" stroke="#388e3c" stroke-width="1" rx="3"/>
  <text x="170" y="120" text-anchor="middle" font-size="9">빌드</text>
  
  <rect x="210" y="100" width="60" height="30" fill="#c8e6c9" stroke="#388e3c" stroke-width="1" rx="3"/>
  <text x="240" y="120" text-anchor="middle" font-size="9">테스트</text>
  
  <rect x="280" y="100" width="60" height="30" fill="#c8e6c9" stroke="#388e3c" stroke-width="1" rx="3"/>
  <text x="310" y="120" text-anchor="middle" font-size="9">패키징</text>
  
  <!-- CD Section -->
  <rect x="400" y="60" width="350" height="120" fill="#e3f2fd" stroke="#2196f3" stroke-width="2" rx="10"/>
  <text x="575" y="85" text-anchor="middle" font-size="14" font-weight="bold">CD (Continuous Delivery/Deployment)</text>
  
  <rect x="420" y="100" width="60" height="30" fill="#bbdefb" stroke="#1976d2" stroke-width="1" rx="3"/>
  <text x="450" y="120" text-anchor="middle" font-size="9">Dev 배포</text>
  
  <rect x="490" y="100" width="60" height="30" fill="#bbdefb" stroke="#1976d2" stroke-width="1" rx="3"/>
  <text x="520" y="120" text-anchor="middle" font-size="9">QA 테스트</text>
  
  <rect x="560" y="100" width="60" height="30" fill="#bbdefb" stroke="#1976d2" stroke-width="1" rx="3"/>
  <text x="590" y="120" text-anchor="middle" font-size="9">Staging</text>
  
  <rect x="630" y="100" width="60" height="30" fill="#bbdefb" stroke="#1976d2" stroke-width="1" rx="3"/>
  <text x="660" y="120" text-anchor="middle" font-size="9">승인</text>
  
  <rect x="700" y="100" width="60" height="30" fill="#bbdefb" stroke="#1976d2" stroke-width="1" rx="3"/>
  <text x="730" y="120" text-anchor="middle" font-size="9">Production</text>
  
  <!-- Arrows -->
  <defs>
    <marker id="arrowhead" markerWidth="10" markerHeight="7" refX="9" refY="3.5" orient="auto">
      <polygon points="0 0, 10 3.5, 0 7" fill="#666"/>
    </marker>
  </defs>
  
  <path d="M 130 115 L 140 115" stroke="#666" stroke-width="1" marker-end="url(#arrowhead)"/>
  <path d="M 200 115 L 210 115" stroke="#666" stroke-width="1" marker-end="url(#arrowhead)"/>
  <path d="M 270 115 L 280 115" stroke="#666" stroke-width="1" marker-end="url(#arrowhead)"/>
  <path d="M 340 115 L 420 115" stroke="#666" stroke-width="2" marker-end="url(#arrowhead)"/>
  <path d="M 480 115 L 490 115" stroke="#666" stroke-width="1" marker-end="url(#arrowhead)"/>
  <path d="M 550 115 L 560 115" stroke="#666" stroke-width="1" marker-end="url(#arrowhead)"/>
  <path d="M 620 115 L 630 115" stroke="#666" stroke-width="1" marker-end="url(#arrowhead)"/>
  <path d="M 690 115 L 700 115" stroke="#666" stroke-width="1" marker-end="url(#arrowhead)"/>
  
  <!-- Environments -->
  <text x="400" y="220" font-size="14" font-weight="bold">배포 환경</text>
  
  <rect x="50" y="240" width="120" height="60" fill="#fff3e0" stroke="#f57c00" stroke-width="2" rx="5"/>
  <text x="110" y="260" text-anchor="middle" font-size="12" font-weight="bold">Development</text>
  <text x="110" y="280" text-anchor="middle" font-size="10">개발자 테스트</text>
  
  <rect x="200" y="240" width="120" height="60" fill="#f3e5f5" stroke="#7b1fa2" stroke-width="2" rx="5"/>
  <text x="260" y="260" text-anchor="middle" font-size="12" font-weight="bold">QA/Testing</text>
  <text x="260" y="280" text-anchor="middle" font-size="10">품질 보증</text>
  
  <rect x="350" y="240" width="120" height="60" fill="#e0f2f1" stroke="#00695c" stroke-width="2" rx="5"/>
  <text x="410" y="260" text-anchor="middle" font-size="12" font-weight="bold">Staging</text>
  <text x="410" y="280" text-anchor="middle" font-size="10">운영 환경 복제</text>
  
  <rect x="500" y="240" width="120" height="60" fill="#ffebee" stroke="#c62828" stroke-width="2" rx="5"/>
  <text x="560" y="260" text-anchor="middle" font-size="12" font-weight="bold">Production</text>
  <text x="560" y="280" text-anchor="middle" font-size="10">실제 서비스</text>
</svg>