<svg width="600" height="400" xmlns="http://www.w3.org/2000/svg">
  <text x="300" y="30" text-anchor="middle" font-size="16" font-weight="bold">컨테이너 보안 계층</text>
  
  <!-- Security Layers -->
  <text x="300" y="60" text-anchor="middle" font-size="14" font-weight="bold">다층 방어 전략</text>
  
  <!-- Application Security -->
  <rect x="100" y="80" width="400" height="40" fill="#ffebee" stroke="#f44336" stroke-width="2" rx="5"/>
  <text x="300" y="105" text-anchor="middle" font-size="12" font-weight="bold">Application Security (애플리케이션 보안)</text>
  
  <!-- Container Security -->
  <rect x="80" y="130" width="440" height="40" fill="#f3e5f5" stroke="#7b1fa2" stroke-width="2" rx="5"/>
  <text x="300" y="155" text-anchor="middle" font-size="12" font-weight="bold">Container Security (컨테이너 보안)</text>
  
  <!-- Image Security -->
  <rect x="60" y="180" width="480" height="40" fill="#fff3e0" stroke="#ff9800" stroke-width="2" rx="5"/>
  <text x="300" y="205" text-anchor="middle" font-size="12" font-weight="bold">Image Security (이미지 보안)</text>
  
  <!-- Container Runtime Security -->
  <rect x="40" y="230" width="520" height="40" fill="#e3f2fd" stroke="#2196f3" stroke-width="2" rx="5"/>
  <text x="300" y="255" text-anchor="middle" font-size="12" font-weight="bold">Container Runtime Security (컨테이너 런타임 보안)</text>
  
  <!-- Host OS Security -->
  <rect x="20" y="280" width="560" height="40" fill="#e8f5e8" stroke="#4caf50" stroke-width="2" rx="5"/>
  <text x="300" y="305" text-anchor="middle" font-size="12" font-weight="bold">Host OS Security (호스트 운영체제 보안)</text>
  
  <!-- Security measures for each layer -->
  <text x="50" y="350" font-size="10" fill="#f44336">• 코드 검토</text>
  <text x="150" y="350" font-size="10" fill="#7b1fa2">• 최소 권한</text>
  <text x="250" y="350" font-size="10" fill="#ff9800">• 취약점 스캔</text>
  <text x="350" y="350" font-size="10" fill="#2196f3">• 런타임 보호</text>
  <text x="450" y="350" font-size="10" fill="#4caf50">• OS 강화</text>
  
  <text x="50" y="365" font-size="10" fill="#f44336">• 의존성 관리</text>
  <text x="150" y="365" font-size="10" fill="#7b1fa2">• 리소스 제한</text>
  <text x="250" y="365" font-size="10" fill="#ff9800">• 이미지 서명</text>
  <text x="350" y="365" font-size="10" fill="#2196f3">• 네임스페이스</text>
  <text x="450" y="365" font-size="10" fill="#4caf50">• 접근 제어</text>
  
  <!-- Arrows showing layered approach -->
  <path d="M 520 100 L 540 100" stroke="#666" stroke-width="1"/>
  <path d="M 540 100 L 540 305" stroke="#666" stroke-width="1"/>
  <path d="M 535 300 L 545 305 L 535 310" stroke="#666" stroke-width="1" fill="none"/>
  
  <text x="550" y="200" font-size="10" fill="#666" transform="rotate(90 550 200)">보안 강화</text>
</svg>