<svg width="700" height="400" xmlns="http://www.w3.org/2000/svg">
  <text x="350" y="30" text-anchor="middle" font-size="16" font-weight="bold">컨테이너 라이프사이클</text>
  
  <!-- States -->
  <!-- Created -->
  <rect x="50" y="80" width="100" height="50" fill="#fff3e0" stroke="#ff9800" stroke-width="2" rx="10"/>
  <text x="100" y="110" text-anchor="middle" font-size="12" font-weight="bold">Created</text>
  
  <!-- Running -->
  <rect x="300" y="80" width="100" height="50" fill="#e8f5e8" stroke="#4caf50" stroke-width="2" rx="10"/>
  <text x="350" y="110" text-anchor="middle" font-size="12" font-weight="bold">Running</text>
  
  <!-- Paused -->
  <rect x="300" y="180" width="100" height="50" fill="#e3f2fd" stroke="#2196f3" stroke-width="2" rx="10"/>
  <text x="350" y="210" text-anchor="middle" font-size="12" font-weight="bold">Paused</text>
  
  <!-- Stopped -->
  <rect x="550" y="80" width="100" height="50" fill="#f3e5f5" stroke="#7b1fa2" stroke-width="2" rx="10"/>
  <text x="600" y="110" text-anchor="middle" font-size="12" font-weight="bold">Stopped</text>
  
  <!-- Killed -->
  <rect x="550" y="180" width="100" height="50" fill="#ffebee" stroke="#f44336" stroke-width="2" rx="10"/>
  <text x="600" y="210" text-anchor="middle" font-size="12" font-weight="bold">Killed</text>
  
  <!-- Removed -->
  <rect x="300" y="300" width="100" height="50" fill="#e0e0e0" stroke="#666" stroke-width="2" rx="10"/>
  <text x="350" y="330" text-anchor="middle" font-size="12" font-weight="bold">Removed</text>
  
  <!-- Transitions -->
  <!-- Created to Running -->
  <path d="M 150 105 L 300 105" stroke="#4caf50" stroke-width="2" marker-end="url(#arrowhead)"/>
  <text x="225" y="100" text-anchor="middle" font-size="10">docker start</text>
  
  <!-- Running to Paused -->
  <path d="M 350 130 L 350 180" stroke="#2196f3" stroke-width="2" marker-end="url(#arrowhead)"/>
  <text x="380" y="155" font-size="10">docker pause</text>
  
  <!-- Paused to Running -->
  <path d="M 340 180 L 340 130" stroke="#4caf50" stroke-width="2" marker-end="url(#arrowhead)"/>
  <text x="310" y="155" font-size="10">docker unpause</text>
  
  <!-- Running to Stopped -->
  <path d="M 400 105 L 550 105" stroke="#7b1fa2" stroke-width="2" marker-end="url(#arrowhead)"/>
  <text x="475" y="100" text-anchor="middle" font-size="10">docker stop</text>
  
  <!-- Stopped to Running -->
  <path d="M 550 115 L 400 115" stroke="#4caf50" stroke-width="2" marker-end="url(#arrowhead)"/>
  <text x="475" y="130" text-anchor="middle" font-size="10">docker start</text>
  
  <!-- Running to Killed -->
  <path d="M 380 130 L 580 180" stroke="#f44336" stroke-width="2" marker-end="url(#arrowhead)"/>
  <text x="480" y="150" text-anchor="middle" font-size="10">docker kill</text>
  
  <!-- To Removed -->
  <path d="M 150 130 L 320 300" stroke="#666" stroke-width="2" marker-end="url(#arrowhead)"/>
  <text x="200" y="220" font-size="10">docker rm</text>
  
  <path d="M 580 130 L 380 300" stroke="#666" stroke-width="2" marker-end="url(#arrowhead)"/>
  <text x="520" y="220" font-size="10">docker rm</text>
  
  <path d="M 580 230 L 380 300" stroke="#666" stroke-width="2" marker-end="url(#arrowhead)"/>
  <text x="520" y="270" font-size="10">docker rm</text>
  
  <!-- Notes -->
  <text x="100" y="50" text-anchor="middle" font-size="10" fill="#ff9800">생성됨</text>
  <text x="350" y="50" text-anchor="middle" font-size="10" fill="#4caf50">실행 중</text>
  <text x="600" y="50" text-anchor="middle" font-size="10" fill="#7b1fa2">정상 종료</text>
  <text x="600" y="250" text-anchor="middle" font-size="10" fill="#f44336">강제 종료</text>
  
  <defs>
    <marker id="arrowhead" markerWidth="10" markerHeight="7" refX="9" refY="3.5" orient="auto">
      <polygon points="0 0, 10 3.5, 0 7" fill="currentColor"/>
    </marker>
  </defs>
</svg>