<svg width="600" height="400" xmlns="http://www.w3.org/2000/svg">
  <text x="300" y="30" text-anchor="middle" font-size="16" font-weight="bold">컨테이너 레이어 구조</text>
  
  <!-- Container Layer -->
  <rect x="150" y="60" width="300" height="40" fill="#ffebee" stroke="#f44336" stroke-width="2" rx="5"/>
  <text x="300" y="85" text-anchor="middle" font-size="12" font-weight="bold">Container Layer (읽기/쓰기)</text>
  
  <!-- Arrow -->
  <path d="M 300 100 L 300 120" stroke="#666" stroke-width="2" marker-end="url(#arrowhead)"/>
  
  <!-- Image Layers -->
  <text x="300" y="140" text-anchor="middle" font-size="14" font-weight="bold">Image Layers (읽기 전용)</text>
  
  <!-- Layer 4 -->
  <rect x="150" y="160" width="300" height="35" fill="#e8f5e8" stroke="#4caf50" stroke-width="2" rx="5"/>
  <text x="300" y="182" text-anchor="middle" font-size="11" font-weight="bold">Layer 4: App Code</text>
  
  <!-- Layer 3 -->
  <rect x="150" y="200" width="300" height="35" fill="#e3f2fd" stroke="#2196f3" stroke-width="2" rx="5"/>
  <text x="300" y="222" text-anchor="middle" font-size="11" font-weight="bold">Layer 3: Dependencies</text>
  
  <!-- Layer 2 -->
  <rect x="150" y="240" width="300" height="35" fill="#f3e5f5" stroke="#7b1fa2" stroke-width="2" rx="5"/>
  <text x="300" y="262" text-anchor="middle" font-size="11" font-weight="bold">Layer 2: Runtime</text>
  
  <!-- Layer 1 -->
  <rect x="150" y="280" width="300" height="35" fill="#fff3e0" stroke="#ff9800" stroke-width="2" rx="5"/>
  <text x="300" y="302" text-anchor="middle" font-size="11" font-weight="bold">Layer 1: Base OS</text>
  
  <!-- Union File System explanation -->
  <text x="300" y="340" text-anchor="middle" font-size="12" font-weight="bold">Union File System</text>
  <text x="300" y="360" text-anchor="middle" font-size="10">여러 레이어를 하나의 파일 시스템으로 통합</text>
  
  <!-- Side arrows showing layer stacking -->
  <path d="M 470 177 L 470 200" stroke="#666" stroke-width="1" marker-end="url(#arrowhead)"/>
  <path d="M 470 217 L 470 240" stroke="#666" stroke-width="1" marker-end="url(#arrowhead)"/>
  <path d="M 470 257 L 470 280" stroke="#666" stroke-width="1" marker-end="url(#arrowhead)"/>
  
  <!-- Layer sharing indication -->
  <text x="500" y="250" font-size="10" fill="#666">레이어</text>
  <text x="500" y="265" font-size="10" fill="#666">공유</text>
  
  <defs>
    <marker id="arrowhead" markerWidth="10" markerHeight="7" refX="9" refY="3.5" orient="auto">
      <polygon points="0 0, 10 3.5, 0 7" fill="#666"/>
    </marker>
  </defs>
</svg>